# xmcd CD database file
#
# Track frame offsets:
#	182
#	47785
#	83492
#	109925
#	159292
#	191495
#	214655
#	249857
#
# Disc length: 3580 seconds
#
# Revision: 0
# Processed by: cddbd v1.4PL0 Copyright (c) Steve Scherf et al.
# Submitted via: CDex 1.50
#
DISCID=5b0dfa08
DTITLE=Marc Ducret - Le Kodo
DYEAR=1989
DGENRE=Jazz
TTITLE0=Le Kodo
TTITLE1=Bribes
TTITLE2=Hélas
TTITLE3=Courage
TTITLE4=You and me and you
TTITLE5=La fée qui rend les filles belles
TTITLE6=Soft leg
TTITLE7=Quelquefois
EXTD=YEAR: 1989
EXTT0=
EXTT1=
EXTT2=
EXTT3=
EXTT4=
EXTT5=
EXTT6=
EXTT7=
PLAYORDER=
